<svg width="167" height="156" viewBox="0 0 167 156" fill="none" xmlns="http://www.w3.org/2000/svg">
<path id="Vector" d="M121.63 43.524L66.6921 94.926L36.764 67.002L25.0095 78L66.6921 117L133.384 54.6L121.63 43.524ZM83.3651 0C37.3476 0 0 34.944 0 78C0 121.056 37.3476 156 83.3651 156C129.383 156 166.73 121.056 166.73 78C166.73 34.944 129.383 0 83.3651 0ZM83.3651 140.4C46.5177 140.4 16.673 112.476 16.673 78C16.673 43.524 46.5177 15.6 83.3651 15.6C120.212 15.6 150.057 43.524 150.057 78C150.057 112.476 120.212 140.4 83.3651 140.4Z" fill="#0A3641"/>
</svg>
